<mxfile host="app.diagrams.net" modified="2024-06-26T09:02:56.871Z" agent="Mozilla/5.0 (Macintosh; Intel Mac OS X 10_15_7) AppleWebKit/605.1.15 (KHTML, like Gecko) Version/17.5 Safari/605.1.15" version="24.6.3" etag="EjFGx5IXRiu93-aNvMP8" type="github">
  <diagram name="Page-1" id="NvyAmTbsVYir7xZWp45C">
    <mxGraphModel>
      <root>
        <mxCell id="0" />
        <mxCell id="1" parent="0" />
      </root>
    </mxGraphModel>
  </diagram>
</mxfile>
